<?xml version="1.0" encoding="UTF-8" ?>
<!DOCTYPE svg PUBLIC "-//W3C//DTD SVG 1.1//EN" "http://www.w3.org/Graphics/SVG/1.1/DTD/svg11.dtd">
<svg width="512pt" height="512pt" viewBox="0 0 512 512" version="1.1" xmlns="http://www.w3.org/2000/svg">
<g id="#346da6ff">
<path fill="#346da6" opacity="1.00" d=" M 249.62 0.00 L 262.18 0.00 C 300.77 1.05 339.15 10.64 373.41 28.47 C 422.08 53.52 462.26 94.63 486.18 143.87 C 502.69 177.56 511.43 214.93 512.00 252.42 L 512.00 262.16 C 510.91 301.49 500.97 340.61 482.49 375.38 C 455.26 427.20 409.70 469.09 355.74 491.81 C 326.49 504.29 294.89 510.89 263.15 512.00 L 252.40 512.00 C 210.68 511.40 169.12 500.55 132.60 480.33 C 82.24 452.70 41.69 407.63 19.67 354.56 C 7.42 325.42 0.95 293.96 0.00 262.38 L 0.00 249.77 C 0.74 226.21 4.39 202.70 11.42 180.17 C 28.37 124.93 64.85 76.05 112.76 43.79 C 152.93 16.44 201.07 1.26 249.62 0.00 M 236.00 120.01 C 226.56 127.97 221.66 139.98 219.42 151.86 C 216.03 170.04 217.65 188.62 217.26 206.99 C 207.25 207.02 197.24 206.98 187.23 207.01 C 187.23 223.33 187.23 239.66 187.23 255.98 C 197.24 256.01 207.25 255.97 217.25 256.00 C 217.27 305.24 217.25 354.49 217.26 403.73 C 233.45 403.74 249.64 403.74 265.82 403.74 C 265.85 354.49 265.82 305.25 265.84 256.00 C 282.09 255.96 298.34 256.02 314.59 255.97 C 317.15 239.65 319.73 223.33 322.30 207.01 C 303.48 206.98 284.66 207.02 265.84 206.99 C 265.83 198.67 265.82 190.35 265.84 182.03 C 265.88 175.76 266.91 169.02 271.08 164.08 C 274.95 159.44 281.20 157.64 287.04 157.53 C 299.69 157.45 312.35 157.54 325.00 157.49 C 325.00 141.20 325.01 124.92 324.99 108.63 C 307.34 108.65 289.69 108.56 272.05 108.67 C 259.33 108.76 245.90 111.53 236.00 120.01 Z" />
</g>
<g id="#ffffffff">
<path fill="#ffffff" opacity="1.00" d=" M 236.00 120.01 C 245.90 111.53 259.33 108.76 272.05 108.67 C 289.69 108.56 307.34 108.65 324.99 108.63 C 325.01 124.92 325.00 141.20 325.00 157.49 C 312.35 157.54 299.69 157.45 287.04 157.53 C 281.20 157.64 274.95 159.44 271.08 164.08 C 266.91 169.02 265.88 175.76 265.84 182.03 C 265.82 190.35 265.83 198.67 265.84 206.99 C 284.66 207.02 303.48 206.98 322.30 207.01 C 319.73 223.33 317.15 239.65 314.59 255.97 C 298.34 256.02 282.09 255.96 265.84 256.00 C 265.82 305.25 265.85 354.49 265.82 403.74 C 249.64 403.74 233.45 403.74 217.26 403.73 C 217.25 354.49 217.27 305.24 217.25 256.00 C 207.25 255.97 197.24 256.01 187.23 255.98 C 187.23 239.66 187.23 223.33 187.23 207.01 C 197.24 206.98 207.25 207.02 217.26 206.99 C 217.65 188.62 216.03 170.04 219.42 151.86 C 221.66 139.98 226.56 127.97 236.00 120.01 Z" />
</g>
</svg>
