<?xml version="1.0" encoding="UTF-8" ?>
<!DOCTYPE svg PUBLIC "-//W3C//DTD SVG 1.1//EN" "http://www.w3.org/Graphics/SVG/1.1/DTD/svg11.dtd">
<svg width="1000pt" height="1000pt" viewBox="0 0 1000 1000" version="1.1" xmlns="http://www.w3.org/2000/svg">
<g id="#000000ff">
<path fill="#000000" opacity="1.00" d=" M 0.00 0.00 L 1000.00 0.00 L 1000.00 1000.00 L 0.00 1000.00 L 0.00 0.00 M 625.98 385.97 L 625.04 386.04 C 624.32 405.49 626.26 425.12 624.04 444.45 C 613.65 439.06 601.83 433.86 589.92 435.73 C 579.09 435.75 568.93 440.22 560.01 446.00 C 557.04 446.62 557.15 451.57 553.77 450.87 C 554.10 450.39 554.77 449.45 555.10 448.97 C 551.05 449.17 548.82 453.76 548.31 457.41 C 535.50 472.00 532.05 493.32 534.82 512.08 C 536.14 522.38 542.24 530.93 547.34 539.65 C 547.74 539.74 548.53 539.91 548.93 540.00 C 550.80 542.78 553.37 545.00 556.01 547.06 C 574.41 564.64 604.84 564.86 625.66 551.22 C 627.60 554.81 630.73 557.74 634.30 559.70 C 639.61 561.69 645.51 559.60 650.19 557.19 C 651.45 553.81 654.67 550.94 654.03 547.01 L 654.99 546.99 C 654.99 493.66 655.03 440.34 654.97 387.01 L 653.99 386.98 C 653.39 383.51 652.21 379.83 648.91 378.09 C 642.73 368.10 626.28 375.14 625.98 385.97 M 798.14 432.41 C 796.40 432.10 794.10 434.40 794.41 436.14 C 793.40 438.01 792.70 440.03 792.06 442.05 L 791.06 441.99 C 790.91 465.99 791.02 489.99 791.01 513.99 L 791.98 514.02 C 792.49 523.32 805.73 528.53 813.00 523.00 C 815.61 521.15 819.37 518.70 819.02 515.03 L 819.97 514.96 C 820.12 507.22 820.07 499.46 819.73 491.73 C 821.01 484.75 822.71 477.90 826.76 471.98 C 828.34 470.88 829.35 469.12 830.80 467.84 C 833.42 468.59 833.34 464.94 835.66 464.59 C 843.04 460.16 852.47 459.83 860.02 463.97 C 865.66 466.25 869.52 472.80 875.98 473.04 C 880.41 474.23 884.02 471.33 887.84 469.80 C 892.12 464.31 892.57 455.93 889.00 450.02 C 879.57 439.34 866.09 432.32 851.79 431.03 C 851.10 429.18 845.88 429.17 845.22 431.03 C 836.50 432.45 827.96 434.74 820.30 439.34 C 818.76 440.77 818.43 438.23 817.67 437.32 C 820.56 434.12 811.83 429.44 815.09 434.02 C 810.34 430.22 803.51 428.86 798.14 432.41 M 194.72 444.78 C 188.99 443.05 183.46 438.49 177.01 437.96 C 159.72 433.33 140.47 438.83 127.40 450.33 C 124.66 450.60 122.16 453.94 121.22 456.28 C 113.09 466.64 106.97 479.46 106.01 492.98 L 105.02 493.02 C 105.02 495.76 105.01 501.25 105.00 504.00 L 105.98 504.00 C 105.10 516.88 112.55 527.91 118.39 538.67 C 119.24 539.12 120.11 539.51 121.01 539.85 C 122.23 542.50 124.78 544.32 127.05 546.04 C 127.44 546.90 127.88 547.76 128.36 548.59 C 137.77 554.11 147.72 559.91 158.99 559.98 C 170.24 560.61 182.68 559.33 192.10 552.65 C 194.32 557.11 192.35 562.48 193.32 567.26 C 193.19 573.41 188.87 578.20 186.21 583.45 C 184.43 583.04 182.05 585.41 182.44 587.19 C 177.35 590.28 172.03 594.11 165.84 593.99 C 165.03 592.20 159.97 592.20 159.16 593.99 C 150.64 593.71 143.01 588.75 137.54 582.48 C 133.70 576.19 123.46 576.44 118.91 581.89 C 112.16 587.21 111.61 599.51 117.94 604.94 C 119.41 607.43 121.73 609.23 123.89 611.11 C 124.02 611.49 124.28 612.25 124.41 612.63 C 133.86 618.53 143.96 624.70 155.33 625.59 C 171.20 627.52 187.99 622.69 199.95 612.01 C 203.41 611.74 205.69 607.98 207.15 605.19 C 207.50 605.03 208.22 604.71 208.57 604.55 C 210.33 599.98 214.16 596.55 216.03 592.02 C 218.87 585.33 222.06 578.42 222.00 571.02 L 222.96 570.97 C 223.05 529.99 223.00 489.00 222.97 448.01 L 221.99 447.98 C 221.40 442.75 217.77 438.01 212.94 436.08 C 205.70 432.74 197.43 437.86 194.72 444.78 M 259.27 452.55 C 257.46 451.93 254.94 454.45 255.54 456.26 C 245.80 465.90 240.87 479.66 239.12 493.05 C 235.84 494.04 239.19 501.99 238.00 505.00 L 238.97 505.00 C 238.87 517.16 244.46 528.20 250.62 538.33 C 251.01 539.94 252.67 540.29 254.02 540.84 C 254.35 541.38 255.00 542.47 255.33 543.01 C 254.19 544.97 257.10 547.84 259.05 546.64 L 259.98 546.98 C 266.09 554.58 276.20 557.88 285.30 560.60 C 297.06 563.43 309.33 561.00 320.70 557.64 C 326.49 554.39 334.13 552.13 338.01 546.74 C 339.65 546.68 341.68 544.65 341.75 543.02 C 343.69 542.82 344.35 540.51 344.94 538.96 C 345.18 533.53 345.65 527.73 342.64 522.97 C 344.00 521.14 340.04 517.41 339.05 519.90 C 334.57 517.14 328.41 516.82 324.02 520.00 C 312.88 531.64 291.28 535.90 278.62 524.05 C 279.85 522.08 276.89 519.11 274.94 520.46 C 271.23 517.80 269.07 512.50 268.98 507.99 C 293.32 508.01 317.65 508.02 341.99 507.98 L 342.02 507.01 C 348.51 505.96 351.75 498.79 353.01 493.00 C 352.27 480.13 347.41 466.94 338.71 457.40 C 338.49 456.85 338.04 455.75 337.82 455.21 C 338.19 452.59 335.26 449.77 332.66 450.12 L 331.54 450.42 C 312.18 431.31 277.80 433.61 259.27 452.55 M 368.15 443.17 C 365.23 446.74 365.48 451.66 365.04 455.99 C 364.91 484.33 365.06 512.67 364.98 541.01 C 365.08 545.22 364.71 549.69 366.31 553.72 C 369.89 557.56 373.90 562.83 380.00 561.02 C 386.22 562.02 392.77 556.10 393.02 550.02 L 393.96 549.97 C 393.99 526.91 394.14 503.85 393.85 480.80 C 394.68 479.29 395.99 477.90 395.94 476.07 C 396.26 475.76 396.89 475.13 397.20 474.82 C 399.09 475.48 401.73 472.84 400.75 470.96 C 405.23 469.79 409.46 466.70 414.31 468.59 C 419.49 469.11 423.18 472.85 426.72 476.28 C 428.02 477.95 427.45 480.66 429.05 481.98 C 428.92 504.64 429.01 527.32 429.01 549.99 L 429.98 550.02 C 429.96 559.79 444.00 563.96 451.00 558.67 C 452.94 559.81 455.81 556.94 454.67 555.00 C 456.14 553.38 457.23 551.26 457.02 549.03 L 457.97 548.97 C 458.04 526.31 458.01 503.64 457.97 480.98 C 459.40 479.18 459.95 476.81 461.13 474.83 C 462.97 475.54 465.50 473.08 464.90 471.23 C 472.04 467.13 481.70 466.99 487.59 473.40 C 491.26 476.07 492.12 480.90 492.87 485.08 L 492.01 484.99 C 491.98 505.65 491.99 526.32 492.01 546.99 L 492.97 547.01 C 491.95 558.10 506.56 564.82 515.00 558.67 C 516.94 559.81 519.81 556.94 518.67 555.00 C 519.86 553.61 520.98 551.90 521.01 550.03 L 521.96 549.97 C 522.04 525.98 522.02 501.99 521.97 478.01 L 520.98 477.99 C 519.14 469.16 516.03 459.96 509.71 453.40 C 509.36 451.16 506.83 448.63 504.60 448.29 C 489.78 434.62 465.04 434.12 448.88 445.85 C 446.20 447.37 446.39 452.92 441.45 449.66 C 429.78 436.52 408.71 434.28 393.09 441.16 C 391.31 441.89 388.13 443.02 387.60 440.27 C 382.04 434.52 371.95 436.53 368.15 443.17 M 720.15 437.95 C 708.18 439.12 696.82 444.01 687.29 451.28 C 683.81 450.75 680.53 455.15 680.29 458.28 C 673.34 467.65 668.09 478.50 666.18 490.06 C 665.93 498.25 665.62 506.49 666.43 514.66 C 669.13 524.09 673.19 533.13 678.99 541.04 C 681.90 543.45 684.55 546.09 686.96 549.01 C 699.62 557.71 715.36 564.16 730.99 561.11 C 743.51 560.27 755.64 555.01 764.99 546.67 C 766.94 547.81 769.81 544.93 768.66 542.98 C 773.94 538.63 772.40 530.73 769.72 525.28 C 768.22 524.10 766.50 523.12 765.57 521.39 C 762.94 517.50 757.12 519.41 753.29 519.26 C 747.97 522.18 743.87 527.00 738.02 529.02 C 725.42 535.47 708.90 531.49 700.09 520.94 C 698.47 516.60 694.45 512.90 694.98 507.99 C 719.32 508.01 743.65 508.01 767.99 507.99 L 768.01 507.02 C 769.47 507.02 771.16 507.16 771.99 505.66 C 773.93 506.82 776.81 503.94 775.67 502.00 C 777.62 499.36 779.44 496.24 779.09 492.84 C 780.73 492.04 780.92 486.73 778.85 486.34 C 773.74 461.54 753.03 439.47 726.85 437.96 C 726.04 436.14 720.95 436.15 720.15 437.95 M 803.23 534.26 C 800.99 537.08 796.14 537.11 794.71 540.35 L 794.11 540.18 C 793.07 545.12 790.83 552.87 795.27 556.05 C 795.65 557.43 796.91 560.38 798.79 559.89 C 800.63 563.15 806.11 561.64 809.00 562.00 C 815.73 562.70 822.77 556.65 821.86 549.73 C 822.09 548.09 821.98 546.44 821.90 544.81 C 821.62 542.74 820.61 540.06 818.92 538.87 C 817.53 538.02 816.08 535.58 815.18 535.44 C 813.98 534.44 812.64 533.64 811.19 533.13 C 808.54 533.30 805.03 531.83 803.23 534.26 Z" />
<path fill="#000000" opacity="1.00" d=" M 575.34 472.35 C 585.96 464.40 601.69 465.05 611.99 473.34 C 613.05 474.70 614.27 475.93 615.59 477.05 C 622.51 487.22 626.48 501.71 619.91 512.92 C 616.06 519.05 610.85 525.32 603.73 527.68 C 594.22 532.06 581.68 530.32 574.22 522.83 C 572.59 521.09 570.89 519.41 569.15 517.79 C 565.92 513.62 562.98 508.44 562.97 503.01 C 562.94 499.95 563.00 496.99 563.00 493.97 C 563.78 487.94 566.52 482.05 570.26 477.26 C 572.31 476.01 573.91 474.27 575.34 472.35 Z" />
<path fill="#000000" opacity="1.00" d=" M 142.16 518.14 C 126.27 502.02 138.46 469.80 161.16 467.95 C 162.83 467.95 166.18 467.95 167.86 467.95 C 172.13 468.08 175.89 470.62 179.72 472.26 C 180.71 473.43 181.40 475.00 183.19 474.93 C 184.43 476.35 185.32 478.06 186.70 479.36 C 190.32 483.37 191.90 488.80 192.97 493.98 C 192.98 496.95 192.98 500.00 193.03 503.01 C 193.13 507.98 190.89 513.95 186.90 516.88 C 184.46 517.47 182.43 519.49 181.87 521.95 C 179.31 526.36 172.95 528.38 167.99 528.52 C 165.61 527.78 163.10 527.10 160.98 528.52 C 155.76 529.33 151.03 525.33 146.25 523.63 C 146.13 523.20 145.88 522.34 145.76 521.92 C 145.61 519.84 144.09 518.57 142.16 518.14 Z" />
<path fill="#000000" opacity="1.00" d=" M 293.28 468.26 C 295.76 468.15 298.24 468.12 300.73 468.16 C 305.62 469.38 311.82 470.81 314.42 475.63 C 315.82 477.56 319.37 478.06 319.05 480.95 C 318.54 480.97 317.52 481.00 317.01 481.01 C 302.66 480.97 288.31 481.03 273.97 480.98 C 274.00 480.54 274.06 479.65 274.09 479.21 C 276.13 477.90 277.68 476.05 279.26 474.25 C 283.58 471.49 288.30 469.45 293.28 468.26 Z" />
<path fill="#000000" opacity="1.00" d=" M 720.26 468.19 C 722.73 468.12 725.21 468.12 727.72 468.20 C 734.95 470.52 743.73 474.06 746.07 481.97 C 730.30 481.65 714.45 482.76 698.76 481.42 C 699.59 480.69 700.45 479.98 701.34 479.31 C 703.49 478.22 705.28 476.51 706.25 474.28 C 710.14 470.84 715.33 469.36 720.26 468.19 Z" />
<path fill="#000000" opacity="1.00" d=" M 802.57 540.10 C 803.30 539.71 804.03 539.31 804.76 538.91 C 806.45 538.89 808.15 538.88 809.86 538.81 C 811.67 539.80 813.41 540.94 815.07 542.18 C 815.52 544.82 815.78 547.43 816.17 550.14 C 815.78 551.45 815.39 552.77 815.06 554.11 C 813.05 555.70 810.65 556.68 808.25 557.49 C 806.83 557.11 805.46 556.70 804.08 556.26 C 802.59 555.68 801.16 555.00 799.77 554.26 C 799.42 550.82 799.06 547.38 798.93 543.93 C 800.21 542.73 801.45 541.47 802.57 540.10 Z" />
</g>
<g id="#ffffffff">
<path fill="#ffffff" opacity="1.00" d=" M 625.98 385.97 C 626.28 375.14 642.73 368.10 648.91 378.09 C 652.21 379.83 653.39 383.51 653.99 386.98 C 654.03 440.32 653.95 493.66 654.03 547.01 C 654.67 550.94 651.45 553.81 650.19 557.19 C 645.51 559.60 639.61 561.69 634.30 559.70 C 630.73 557.74 627.60 554.81 625.66 551.22 C 604.84 564.86 574.41 564.64 556.01 547.06 C 554.72 544.05 552.45 540.45 548.93 540.00 C 548.53 539.91 547.74 539.74 547.34 539.65 C 542.24 530.93 536.14 522.38 534.82 512.08 C 532.05 493.32 535.50 472.00 548.31 457.41 C 551.04 456.04 551.36 452.60 553.77 450.87 C 557.15 451.57 557.04 446.62 560.01 446.00 C 568.93 440.22 579.09 435.75 589.92 435.73 C 601.83 433.86 613.65 439.06 624.04 444.45 C 624.51 444.63 625.43 444.99 625.90 445.17 C 626.14 425.43 625.95 405.70 625.98 385.97 M 575.34 472.35 C 573.91 474.27 572.31 476.01 570.26 477.26 C 566.52 482.05 563.78 487.94 563.00 493.97 L 562.05 494.03 C 562.76 496.46 559.70 502.87 562.97 503.01 C 562.98 508.44 565.92 513.62 569.15 517.79 C 568.82 520.34 571.65 523.19 574.22 522.83 C 581.68 530.32 594.22 532.06 603.73 527.68 C 610.85 525.32 616.06 519.05 619.91 512.92 C 626.48 501.71 622.51 487.22 615.59 477.05 C 616.87 475.10 613.95 472.16 611.99 473.34 C 601.69 465.05 585.96 464.40 575.34 472.35 Z" />
<path fill="#ffffff" opacity="1.00" d=" M 798.14 432.41 C 803.51 428.86 810.34 430.22 815.09 434.02 C 815.97 435.10 816.81 436.21 817.67 437.32 C 818.43 438.23 818.76 440.77 820.30 439.34 C 827.96 434.74 836.50 432.45 845.22 431.03 C 846.86 431.03 850.15 431.03 851.79 431.03 C 866.09 432.32 879.57 439.34 889.00 450.02 C 892.57 455.93 892.12 464.31 887.84 469.80 C 884.02 471.33 880.41 474.23 875.98 473.04 C 869.52 472.80 865.66 466.25 860.02 463.97 C 852.47 459.83 843.04 460.16 835.66 464.59 C 833.34 464.94 833.42 468.59 830.80 467.84 C 831.09 467.33 831.68 466.32 831.97 465.82 C 829.13 466.43 826.89 469.06 826.76 471.98 C 822.71 477.90 821.01 484.75 819.73 491.73 C 818.43 499.42 819.09 507.26 819.02 515.03 C 819.37 518.70 815.61 521.15 813.00 523.00 C 805.73 528.53 792.49 523.32 791.98 514.02 C 792.07 490.03 791.90 466.04 792.06 442.05 C 792.70 440.03 793.40 438.01 794.41 436.14 C 796.29 435.78 797.78 434.29 798.14 432.41 Z" />
<path fill="#ffffff" opacity="1.00" d=" M 194.72 444.78 C 197.43 437.86 205.70 432.74 212.94 436.08 C 217.77 438.01 221.40 442.75 221.99 447.98 C 222.02 488.99 221.99 530.00 222.00 571.02 C 222.06 578.42 218.87 585.33 216.03 592.02 C 214.16 596.55 210.33 599.98 208.57 604.55 C 208.22 604.71 207.50 605.03 207.15 605.19 C 204.22 606.78 201.95 609.37 199.95 612.01 C 187.99 622.69 171.20 627.52 155.33 625.59 C 143.96 624.70 133.86 618.53 124.41 612.63 C 124.28 612.25 124.02 611.49 123.89 611.11 C 123.38 608.11 120.90 605.53 117.94 604.94 C 111.61 599.51 112.16 587.21 118.91 581.89 C 123.46 576.44 133.70 576.19 137.54 582.48 C 143.01 588.75 150.64 593.71 159.16 593.99 C 160.83 593.99 164.17 593.99 165.84 593.99 C 172.03 594.11 177.35 590.28 182.44 587.19 C 184.28 586.72 185.71 585.28 186.21 583.45 C 188.87 578.20 193.19 573.41 193.32 567.26 C 194.01 562.11 194.21 556.95 193.93 551.77 C 193.47 551.99 192.56 552.43 192.10 552.65 C 182.68 559.33 170.24 560.61 158.99 559.98 C 147.72 559.91 137.77 554.11 128.36 548.59 C 127.88 547.76 127.44 546.90 127.05 546.04 C 126.18 543.18 123.88 540.71 121.01 539.85 C 120.11 539.51 119.24 539.12 118.39 538.67 C 112.55 527.91 105.10 516.88 105.98 504.00 C 106.01 500.30 105.99 496.66 106.01 492.98 C 106.97 479.46 113.09 466.64 121.22 456.28 C 123.86 454.98 125.66 452.62 127.40 450.33 C 140.47 438.83 159.72 433.33 177.01 437.96 C 183.46 438.49 188.99 443.05 194.72 444.78 M 161.16 467.95 C 138.46 469.80 126.27 502.02 142.16 518.14 C 141.80 519.75 144.18 522.13 145.76 521.92 C 145.88 522.34 146.13 523.20 146.25 523.63 C 151.03 525.33 155.76 529.33 160.98 528.52 C 163.03 529.70 165.91 529.62 167.99 528.52 C 172.95 528.38 179.31 526.36 181.87 521.95 C 185.47 523.21 186.20 519.47 186.90 516.88 C 190.89 513.95 193.13 507.98 193.03 503.01 L 193.96 502.97 C 193.24 500.55 196.25 494.03 192.97 493.98 C 191.90 488.80 190.32 483.37 186.70 479.36 C 187.95 476.28 184.79 473.20 181.92 472.95 C 182.24 473.45 182.87 474.43 183.19 474.93 C 181.40 475.00 180.71 473.43 179.72 472.26 C 175.89 470.62 172.13 468.08 167.86 467.95 C 167.04 466.14 161.94 466.14 161.16 467.95 Z" />
<path fill="#ffffff" opacity="1.00" d=" M 259.27 452.55 C 277.80 433.61 312.18 431.31 331.54 450.42 C 333.64 452.99 335.73 455.77 338.71 457.40 C 347.41 466.94 352.27 480.13 353.01 493.00 C 351.75 498.79 348.51 505.96 342.02 507.01 C 317.69 507.05 293.35 506.91 269.03 507.04 L 268.98 507.99 C 269.07 512.50 271.23 517.80 274.94 520.46 C 276.09 521.72 277.28 522.96 278.62 524.05 C 291.28 535.90 312.88 531.64 324.02 520.00 C 328.41 516.82 334.57 517.14 339.05 519.90 C 340.26 520.91 341.43 521.96 342.64 522.97 C 345.65 527.73 345.18 533.53 344.94 538.96 C 344.35 540.51 343.69 542.82 341.75 543.02 C 339.73 543.01 338.01 544.73 338.01 546.74 C 334.13 552.13 326.49 554.39 320.70 557.64 C 309.33 561.00 297.06 563.43 285.30 560.60 C 276.20 557.88 266.09 554.58 259.98 546.98 C 259.13 544.15 256.87 541.68 254.02 540.84 C 252.67 540.29 251.01 539.94 250.62 538.33 C 244.46 528.20 238.87 517.16 238.97 505.00 C 238.99 501.01 239.04 497.03 239.12 493.05 C 240.87 479.66 245.80 465.90 255.54 456.26 C 257.28 455.64 258.64 454.28 259.27 452.55 M 292.96 467.16 L 293.28 468.26 C 288.30 469.45 283.58 471.49 279.26 474.25 C 276.63 473.65 274.44 476.92 274.09 479.21 C 274.06 479.65 274.00 480.54 273.97 480.98 C 273.73 481.22 273.26 481.71 273.02 481.95 C 287.67 482.11 302.33 481.96 316.99 481.98 L 317.01 481.01 C 317.52 481.00 318.54 480.97 319.05 480.95 C 319.37 478.06 315.82 477.56 314.42 475.63 C 311.82 470.81 305.62 469.38 300.73 468.16 L 301.04 467.13 C 298.35 466.90 295.64 466.89 292.96 467.16 Z" />
<path fill="#ffffff" opacity="1.00" d=" M 368.15 443.17 C 371.95 436.53 382.04 434.52 387.60 440.27 C 388.13 443.02 391.31 441.89 393.09 441.16 C 408.71 434.28 429.78 436.52 441.45 449.66 C 446.39 452.92 446.20 447.37 448.88 445.85 C 465.04 434.12 489.78 434.62 504.60 448.29 C 505.76 450.46 507.53 452.24 509.71 453.40 C 516.03 459.96 519.14 469.16 520.98 477.99 C 521.03 502.00 520.98 526.01 521.01 550.03 C 520.98 551.90 519.86 553.61 518.67 555.00 C 517.27 556.04 516.04 557.27 515.00 558.67 C 506.56 564.82 491.95 558.10 492.97 547.01 C 492.92 526.36 493.19 505.72 492.87 485.08 C 492.12 480.90 491.26 476.07 487.59 473.40 C 481.70 466.99 472.04 467.13 464.90 471.23 C 463.17 471.76 461.87 473.22 461.13 474.83 C 459.95 476.81 459.40 479.18 457.97 480.98 L 457.43 481.59 C 456.42 504.03 457.26 526.55 457.02 549.03 C 457.23 551.26 456.14 553.38 454.67 555.00 C 453.28 556.04 452.04 557.27 451.00 558.67 C 444.00 563.96 429.96 559.79 429.98 550.02 C 429.93 527.73 430.16 505.44 429.91 483.16 C 429.69 482.86 429.27 482.27 429.05 481.98 C 427.45 480.66 428.02 477.95 426.72 476.28 C 423.18 472.85 419.49 469.11 414.31 468.59 C 409.46 466.70 405.23 469.79 400.75 470.96 L 400.10 471.06 C 397.40 470.94 395.59 473.53 395.94 476.07 C 395.99 477.90 394.68 479.29 393.85 480.80 C 391.89 503.63 393.51 526.99 393.02 550.02 C 392.77 556.10 386.22 562.02 380.00 561.02 C 373.90 562.83 369.89 557.56 366.31 553.72 C 364.71 549.69 365.08 545.22 364.98 541.01 C 365.06 512.67 364.91 484.33 365.04 455.99 C 365.48 451.66 365.23 446.74 368.15 443.17 Z" />
<path fill="#ffffff" opacity="1.00" d=" M 687.29 451.28 C 696.82 444.01 708.18 439.12 720.15 437.95 C 721.82 437.95 725.18 437.96 726.85 437.96 C 753.03 439.47 773.74 461.54 778.85 486.34 C 778.91 487.97 779.03 491.21 779.09 492.84 C 779.44 496.24 777.62 499.36 775.67 502.00 C 774.27 503.04 773.03 504.27 771.99 505.66 C 771.16 507.16 769.47 507.02 768.01 507.02 C 743.68 507.02 719.35 506.92 695.03 507.04 L 694.98 507.99 C 694.45 512.90 698.47 516.60 700.09 520.94 C 708.90 531.49 725.42 535.47 738.02 529.02 C 743.87 527.00 747.97 522.18 753.29 519.26 C 757.12 519.41 762.94 517.50 765.57 521.39 C 766.50 523.12 768.22 524.10 769.72 525.28 C 772.40 530.73 773.94 538.63 768.66 542.98 C 767.27 544.04 766.04 545.28 764.99 546.67 C 755.64 555.01 743.51 560.27 730.99 561.11 C 715.36 564.16 699.62 557.71 686.96 549.01 C 684.55 546.09 681.90 543.45 678.99 541.04 C 673.19 533.13 669.13 524.09 666.43 514.66 C 665.62 506.49 665.93 498.25 666.18 490.06 C 668.09 478.50 673.34 467.65 680.29 458.28 C 682.56 455.89 684.87 453.53 687.29 451.28 M 719.96 467.13 L 720.26 468.19 C 715.33 469.36 710.14 470.84 706.25 474.28 L 705.08 474.34 C 703.07 473.18 700.18 476.09 701.35 478.09 L 701.34 479.31 C 700.45 479.98 699.59 480.69 698.76 481.42 C 698.58 481.80 698.23 482.55 698.06 482.93 C 714.36 483.14 730.68 482.96 746.99 482.97 C 746.76 482.72 746.30 482.22 746.07 481.97 C 743.73 474.06 734.95 470.52 727.72 468.20 L 728.04 467.15 C 725.35 466.90 722.64 466.90 719.96 467.13 Z" />
</g>
<g id="#969596ff">
<path fill="#969596" opacity="1.00" d=" M 625.04 386.04 L 625.98 385.97 C 625.95 405.70 626.14 425.43 625.90 445.17 C 625.43 444.99 624.51 444.63 624.04 444.45 C 626.26 425.12 624.32 405.49 625.04 386.04 Z" />
<path fill="#969596" opacity="1.00" d=" M 794.41 436.14 C 794.10 434.40 796.40 432.10 798.14 432.41 C 797.78 434.29 796.29 435.78 794.41 436.14 Z" />
<path fill="#969596" opacity="1.00" d=" M 221.99 447.98 L 222.97 448.01 C 223.00 489.00 223.05 529.99 222.96 570.97 L 222.00 571.02 C 221.99 530.00 222.02 488.99 221.99 447.98 Z" />
<path fill="#969596" opacity="1.00" d=" M 121.22 456.28 C 122.16 453.94 124.66 450.60 127.40 450.33 C 125.66 452.62 123.86 454.98 121.22 456.28 Z" />
<path fill="#969596" opacity="1.00" d=" M 611.99 473.34 C 613.95 472.16 616.87 475.10 615.59 477.05 C 614.27 475.93 613.05 474.70 611.99 473.34 Z" />
<path fill="#969596" opacity="1.00" d=" M 274.09 479.21 C 274.44 476.92 276.63 473.65 279.26 474.25 C 277.68 476.05 276.13 477.90 274.09 479.21 Z" />
<path fill="#969596" opacity="1.00" d=" M 192.97 493.98 C 196.25 494.03 193.24 500.55 193.96 502.97 L 193.03 503.01 C 192.98 500.00 192.98 496.95 192.97 493.98 Z" />
<path fill="#969596" opacity="1.00" d=" M 562.05 494.03 L 563.00 493.97 C 563.00 496.99 562.94 499.95 562.97 503.01 C 559.70 502.87 562.76 496.46 562.05 494.03 Z" />
<path fill="#969596" opacity="1.00" d=" M 142.16 518.14 C 144.09 518.57 145.61 519.84 145.76 521.92 C 144.18 522.13 141.80 519.75 142.16 518.14 Z" />
<path fill="#969596" opacity="1.00" d=" M 121.01 539.85 C 123.88 540.71 126.18 543.18 127.05 546.04 C 124.78 544.32 122.23 542.50 121.01 539.85 Z" />
<path fill="#969596" opacity="1.00" d=" M 548.93 540.00 C 552.45 540.45 554.72 544.05 556.01 547.06 C 553.37 545.00 550.80 542.78 548.93 540.00 Z" />
<path fill="#969596" opacity="1.00" d=" M 338.01 546.74 C 338.01 544.73 339.73 543.01 341.75 543.02 C 341.68 544.65 339.65 546.68 338.01 546.74 Z" />
<path fill="#969596" opacity="1.00" d=" M 182.44 587.19 C 182.05 585.41 184.43 583.04 186.21 583.45 C 185.71 585.28 184.28 586.72 182.44 587.19 Z" />
<path fill="#969596" opacity="1.00" d=" M 117.94 604.94 C 120.90 605.53 123.38 608.11 123.89 611.11 C 121.73 609.23 119.41 607.43 117.94 604.94 Z" />
</g>
<g id="#29282aff">
<path fill="#29282a" opacity="1.00" d=" M 653.99 386.98 L 654.97 387.01 C 655.03 440.34 654.99 493.66 654.99 546.99 L 654.03 547.01 C 653.95 493.66 654.03 440.32 653.99 386.98 Z" />
<path fill="#29282a" opacity="1.00" d=" M 845.22 431.03 C 845.88 429.17 851.10 429.18 851.79 431.03 C 850.15 431.03 846.86 431.03 845.22 431.03 Z" />
<path fill="#29282a" opacity="1.00" d=" M 815.09 434.02 C 811.83 429.44 820.56 434.12 817.67 437.32 C 816.81 436.21 815.97 435.10 815.09 434.02 Z" />
<path fill="#29282a" opacity="1.00" d=" M 548.31 457.41 C 548.82 453.76 551.05 449.17 555.10 448.97 C 554.77 449.45 554.10 450.39 553.77 450.87 C 551.36 452.60 551.04 456.04 548.31 457.41 Z" />
<path fill="#29282a" opacity="1.00" d=" M 332.66 450.12 C 335.26 449.77 338.19 452.59 337.82 455.21 C 336.07 453.53 334.36 451.83 332.66 450.12 Z" />
<path fill="#29282a" opacity="1.00" d=" M 400.10 471.06 L 400.75 470.96 C 401.73 472.84 399.09 475.48 397.20 474.82 C 398.00 473.44 399.05 472.24 400.10 471.06 Z" />
<path fill="#29282a" opacity="1.00" d=" M 461.13 474.83 C 461.87 473.22 463.17 471.76 464.90 471.23 C 465.50 473.08 462.97 475.54 461.13 474.83 Z" />
<path fill="#29282a" opacity="1.00" d=" M 705.08 474.34 L 706.25 474.28 C 705.28 476.51 703.49 478.22 701.34 479.31 L 701.35 478.09 C 702.69 476.95 703.94 475.69 705.08 474.34 Z" />
<path fill="#29282a" opacity="1.00" d=" M 492.01 484.99 L 492.87 485.08 C 493.19 505.72 492.92 526.36 492.97 547.01 L 492.01 546.99 C 491.99 526.32 491.98 505.65 492.01 484.99 Z" />
<path fill="#29282a" opacity="1.00" d=" M 778.85 486.34 C 780.92 486.73 780.73 492.04 779.09 492.84 C 779.03 491.21 778.91 487.97 778.85 486.34 Z" />
<path fill="#29282a" opacity="1.00" d=" M 238.00 505.00 C 239.19 501.99 235.84 494.04 239.12 493.05 C 239.04 497.03 238.99 501.01 238.97 505.00 L 238.00 505.00 Z" />
<path fill="#29282a" opacity="1.00" d=" M 771.99 505.66 C 773.03 504.27 774.27 503.04 775.67 502.00 C 776.81 503.94 773.93 506.82 771.99 505.66 Z" />
<path fill="#29282a" opacity="1.00" d=" M 269.03 507.04 C 293.35 506.91 317.69 507.05 342.02 507.01 L 341.99 507.98 C 317.65 508.02 293.32 508.01 268.98 507.99 L 269.03 507.04 Z" />
<path fill="#29282a" opacity="1.00" d=" M 695.03 507.04 C 719.35 506.92 743.68 507.02 768.01 507.02 L 767.99 507.99 C 743.65 508.01 719.32 508.01 694.98 507.99 L 695.03 507.04 Z" />
<path fill="#29282a" opacity="1.00" d=" M 181.87 521.95 C 182.43 519.49 184.46 517.47 186.90 516.88 C 186.20 519.47 185.47 523.21 181.87 521.95 Z" />
<path fill="#29282a" opacity="1.00" d=" M 255.33 543.01 C 256.72 544.06 257.96 545.28 259.05 546.64 C 257.10 547.84 254.19 544.97 255.33 543.01 Z" />
<path fill="#29282a" opacity="1.00" d=" M 764.99 546.67 C 766.04 545.28 767.27 544.04 768.66 542.98 C 769.81 544.93 766.94 547.81 764.99 546.67 Z" />
<path fill="#29282a" opacity="1.00" d=" M 451.00 558.67 C 452.04 557.27 453.28 556.04 454.67 555.00 C 455.81 556.94 452.94 559.81 451.00 558.67 Z" />
<path fill="#29282a" opacity="1.00" d=" M 515.00 558.67 C 516.04 557.27 517.27 556.04 518.67 555.00 C 519.81 556.94 516.94 559.81 515.00 558.67 Z" />
<path fill="#29282a" opacity="1.00" d=" M 159.16 593.99 C 159.97 592.20 165.03 592.20 165.84 593.99 C 164.17 593.99 160.83 593.99 159.16 593.99 Z" />
</g>
<g id="#59585aff">
<path fill="#59585a" opacity="1.00" d=" M 720.15 437.95 C 720.95 436.15 726.04 436.14 726.85 437.96 C 725.18 437.96 721.82 437.95 720.15 437.95 Z" />
<path fill="#59585a" opacity="1.00" d=" M 791.06 441.99 L 792.06 442.05 C 791.90 466.04 792.07 490.03 791.98 514.02 L 791.01 513.99 C 791.02 489.99 790.91 465.99 791.06 441.99 Z" />
<path fill="#59585a" opacity="1.00" d=" M 680.29 458.28 C 680.53 455.15 683.81 450.75 687.29 451.28 C 684.87 453.53 682.56 455.89 680.29 458.28 Z" />
<path fill="#59585a" opacity="1.00" d=" M 161.16 467.95 C 161.94 466.14 167.04 466.14 167.86 467.95 C 166.18 467.95 162.83 467.95 161.16 467.95 Z" />
<path fill="#59585a" opacity="1.00" d=" M 520.98 477.99 L 521.97 478.01 C 522.02 501.99 522.04 525.98 521.96 549.97 L 521.01 550.03 C 520.98 526.01 521.03 502.00 520.98 477.99 Z" />
<path fill="#59585a" opacity="1.00" d=" M 105.02 493.02 L 106.01 492.98 C 105.99 496.66 106.01 500.30 105.98 504.00 L 105.00 504.00 C 105.01 501.25 105.02 495.76 105.02 493.02 Z" />
<path fill="#59585a" opacity="1.00" d=" M 339.05 519.90 C 340.04 517.41 344.00 521.14 342.64 522.97 C 341.43 521.96 340.26 520.91 339.05 519.90 Z" />
<path fill="#59585a" opacity="1.00" d=" M 274.94 520.46 C 276.89 519.11 279.85 522.08 278.62 524.05 C 277.28 522.96 276.09 521.72 274.94 520.46 Z" />
<path fill="#59585a" opacity="1.00" d=" M 160.98 528.52 C 163.10 527.10 165.61 527.78 167.99 528.52 C 165.91 529.62 163.03 529.70 160.98 528.52 Z" />
<path fill="#59585a" opacity="1.00" d=" M 192.10 552.65 C 192.56 552.43 193.47 551.99 193.93 551.77 C 194.21 556.95 194.01 562.11 193.32 567.26 C 192.35 562.48 194.32 557.11 192.10 552.65 Z" />
<path fill="#59585a" opacity="1.00" d=" M 795.27 556.05 C 796.20 556.23 797.10 556.56 797.96 557.03 C 798.23 557.98 798.50 558.93 798.79 559.89 C 796.91 560.38 795.65 557.43 795.27 556.05 Z" />
<path fill="#59585a" opacity="1.00" d=" M 199.95 612.01 C 201.95 609.37 204.22 606.78 207.15 605.19 C 205.69 607.98 203.41 611.74 199.95 612.01 Z" />
</g>
<g id="#d2d2d2ff">
<path fill="#d2d2d2" opacity="1.00" d=" M 504.60 448.29 C 506.83 448.63 509.36 451.16 509.71 453.40 C 507.53 452.24 505.76 450.46 504.60 448.29 Z" />
<path fill="#d2d2d2" opacity="1.00" d=" M 331.54 450.42 L 332.66 450.12 C 334.36 451.83 336.07 453.53 337.82 455.21 C 338.04 455.75 338.49 456.85 338.71 457.40 C 335.73 455.77 333.64 452.99 331.54 450.42 Z" />
<path fill="#d2d2d2" opacity="1.00" d=" M 255.54 456.26 C 254.94 454.45 257.46 451.93 259.27 452.55 C 258.64 454.28 257.28 455.64 255.54 456.26 Z" />
<path fill="#d2d2d2" opacity="1.00" d=" M 826.76 471.98 C 826.89 469.06 829.13 466.43 831.97 465.82 C 831.68 466.32 831.09 467.33 830.80 467.84 C 829.35 469.12 828.34 470.88 826.76 471.98 Z" />
<path fill="#d2d2d2" opacity="1.00" d=" M 292.96 467.16 C 295.64 466.89 298.35 466.90 301.04 467.13 L 300.73 468.16 C 298.24 468.12 295.76 468.15 293.28 468.26 L 292.96 467.16 Z" />
<path fill="#d2d2d2" opacity="1.00" d=" M 719.96 467.13 C 722.64 466.90 725.35 466.90 728.04 467.15 L 727.72 468.20 C 725.21 468.12 722.73 468.12 720.26 468.19 L 719.96 467.13 Z" />
<path fill="#d2d2d2" opacity="1.00" d=" M 395.94 476.07 C 395.59 473.53 397.40 470.94 400.10 471.06 C 399.05 472.24 398.00 473.44 397.20 474.82 C 396.89 475.13 396.26 475.76 395.94 476.07 Z" />
<path fill="#d2d2d2" opacity="1.00" d=" M 181.92 472.95 C 184.79 473.20 187.95 476.28 186.70 479.36 C 185.32 478.06 184.43 476.35 183.19 474.93 C 182.87 474.43 182.24 473.45 181.92 472.95 Z" />
<path fill="#d2d2d2" opacity="1.00" d=" M 701.35 478.09 C 700.18 476.09 703.07 473.18 705.08 474.34 C 703.94 475.69 702.69 476.95 701.35 478.09 Z" />
<path fill="#d2d2d2" opacity="1.00" d=" M 273.02 481.95 C 273.26 481.71 273.73 481.22 273.97 480.98 C 288.31 481.03 302.66 480.97 317.01 481.01 L 316.99 481.98 C 302.33 481.96 287.67 482.11 273.02 481.95 Z" />
<path fill="#d2d2d2" opacity="1.00" d=" M 393.02 550.02 C 393.51 526.99 391.89 503.63 393.85 480.80 C 394.14 503.85 393.99 526.91 393.96 549.97 L 393.02 550.02 Z" />
<path fill="#d2d2d2" opacity="1.00" d=" M 457.43 481.59 L 457.97 480.98 C 458.01 503.64 458.04 526.31 457.97 548.97 L 457.02 549.03 C 457.26 526.55 456.42 504.03 457.43 481.59 Z" />
<path fill="#d2d2d2" opacity="1.00" d=" M 698.06 482.93 C 698.23 482.55 698.58 481.80 698.76 481.42 C 714.45 482.76 730.30 481.65 746.07 481.97 C 746.30 482.22 746.76 482.72 746.99 482.97 C 730.68 482.96 714.36 483.14 698.06 482.93 Z" />
<path fill="#d2d2d2" opacity="1.00" d=" M 429.05 481.98 C 429.27 482.27 429.69 482.86 429.91 483.16 C 430.16 505.44 429.93 527.73 429.98 550.02 L 429.01 549.99 C 429.01 527.32 428.92 504.64 429.05 481.98 Z" />
<path fill="#d2d2d2" opacity="1.00" d=" M 819.02 515.03 C 819.09 507.26 818.43 499.42 819.73 491.73 C 820.07 499.46 820.12 507.22 819.97 514.96 L 819.02 515.03 Z" />
<path fill="#d2d2d2" opacity="1.00" d=" M 569.15 517.79 C 570.89 519.41 572.59 521.09 574.22 522.83 C 571.65 523.19 568.82 520.34 569.15 517.79 Z" />
<path fill="#d2d2d2" opacity="1.00" d=" M 254.02 540.84 C 256.87 541.68 259.13 544.15 259.98 546.98 L 259.05 546.64 C 257.96 545.28 256.72 544.06 255.33 543.01 C 255.00 542.47 254.35 541.38 254.02 540.84 Z" />
</g>
<g id="#f5b2e4ff">
<path fill="#f5b2e4" opacity="1.00" d=" M 803.23 534.26 C 805.03 531.83 808.54 533.30 811.19 533.13 C 809.10 535.08 805.78 536.05 804.76 538.91 C 804.03 539.31 803.30 539.71 802.57 540.10 C 800.11 537.91 797.53 542.67 794.71 540.35 C 796.14 537.11 800.99 537.08 803.23 534.26 Z" />
</g>
<g id="#e266eaff">
<path fill="#e266ea" opacity="1.00" d=" M 811.19 533.13 C 812.64 533.64 813.98 534.44 815.18 535.44 C 813.47 536.67 811.65 537.73 809.86 538.81 C 808.15 538.88 806.45 538.89 804.76 538.91 C 805.78 536.05 809.10 535.08 811.19 533.13 Z" />
<path fill="#e266ea" opacity="1.00" d=" M 794.71 540.35 C 797.53 542.67 800.11 537.91 802.57 540.10 C 801.45 541.47 800.21 542.73 798.93 543.93 C 797.47 544.35 796.15 545.13 795.09 546.20 C 794.73 549.09 796.93 551.45 798.03 553.96 C 798.02 554.73 797.98 556.26 797.96 557.03 C 797.10 556.56 796.20 556.23 795.27 556.05 C 790.83 552.87 793.07 545.12 794.11 540.18 L 794.71 540.35 Z" />
</g>
<g id="#bf2bebff">
<path fill="#bf2beb" opacity="1.00" d=" M 815.18 535.44 C 816.08 535.58 817.53 538.02 818.92 538.87 C 817.61 539.94 816.35 541.07 815.07 542.18 C 813.41 540.94 811.67 539.80 809.86 538.81 C 811.65 537.73 813.47 536.67 815.18 535.44 Z" />
<path fill="#bf2beb" opacity="1.00" d=" M 795.09 546.20 C 796.15 545.13 797.47 544.35 798.93 543.93 C 799.06 547.38 799.42 550.82 799.77 554.26 C 799.34 554.19 798.47 554.03 798.03 553.96 C 796.93 551.45 794.73 549.09 795.09 546.20 Z" />
</g>
<g id="#8944fbff">
<path fill="#8944fb" opacity="1.00" d=" M 815.07 542.18 C 816.35 541.07 817.61 539.94 818.92 538.87 C 820.61 540.06 821.62 542.74 821.90 544.81 C 819.98 546.59 818.06 548.34 816.17 550.14 C 815.78 547.43 815.52 544.82 815.07 542.18 Z" />
<path fill="#8944fb" opacity="1.00" d=" M 798.03 553.96 C 798.47 554.03 799.34 554.19 799.77 554.26 C 801.16 555.00 802.59 555.68 804.08 556.26 C 804.17 558.21 802.20 558.03 800.83 558.35 C 799.84 557.96 798.88 557.52 797.96 557.03 C 797.98 556.26 798.02 554.73 798.03 553.96 Z" />
</g>
<g id="#5663e4ff">
<path fill="#5663e4" opacity="1.00" d=" M 816.17 550.14 C 818.06 548.34 819.98 546.59 821.90 544.81 C 821.98 546.44 822.09 548.09 821.86 549.73 C 819.44 550.95 817.21 552.48 815.06 554.11 C 815.39 552.77 815.78 551.45 816.17 550.14 Z" />
<path fill="#5663e4" opacity="1.00" d=" M 804.08 556.26 C 805.46 556.70 806.83 557.11 808.25 557.49 C 806.00 558.54 803.22 559.34 800.83 558.35 C 802.20 558.03 804.17 558.21 804.08 556.26 Z" />
</g>
<g id="#4e9dfbff">
<path fill="#4e9dfb" opacity="1.00" d=" M 815.06 554.11 C 817.21 552.48 819.44 550.95 821.86 549.73 C 822.77 556.65 815.73 562.70 809.00 562.00 C 806.11 561.64 800.63 563.15 798.79 559.89 C 798.50 558.93 798.23 557.98 797.96 557.03 C 798.88 557.52 799.84 557.96 800.83 558.35 C 803.22 559.34 806.00 558.54 808.25 557.49 C 810.65 556.68 813.05 555.70 815.06 554.11 Z" />
</g>
</svg>
