<?xml version="1.0" encoding="UTF-8" ?>
<!DOCTYPE svg PUBLIC "-//W3C//DTD SVG 1.1//EN" "http://www.w3.org/Graphics/SVG/1.1/DTD/svg11.dtd">
<svg width="1709pt" height="454pt" viewBox="0 0 1709 454" version="1.1" xmlns="http://www.w3.org/2000/svg">
<g id="#818686fc">
<path fill="#818686" opacity="1.00" d=" M 1432.32 113.33 C 1437.01 111.86 1441.78 113.59 1445.34 116.66 C 1448.21 120.39 1450.24 125.18 1449.96 129.99 C 1449.98 178.31 1450.11 226.63 1449.90 274.95 C 1448.57 278.61 1447.41 282.74 1444.26 285.25 C 1437.14 290.44 1426.10 287.53 1422.88 279.04 C 1415.05 283.82 1406.27 287.52 1397.01 287.97 C 1376.52 290.49 1355.74 279.00 1345.63 261.34 C 1338.27 250.09 1336.47 236.17 1336.98 222.98 C 1339.32 200.81 1354.75 180.12 1376.30 173.36 C 1391.94 168.41 1409.17 171.46 1423.01 179.96 C 1423.03 161.30 1422.94 142.64 1423.01 123.98 C 1423.74 118.94 1427.56 114.91 1432.32 113.33 M 1387.34 200.41 C 1376.66 202.75 1367.60 211.29 1364.84 221.91 C 1359.70 238.88 1373.03 258.77 1391.01 259.01 C 1403.38 260.18 1414.63 251.06 1418.84 239.88 C 1423.06 229.64 1419.77 217.40 1412.84 209.16 C 1406.42 202.47 1396.58 198.78 1387.34 200.41 Z" />
<path fill="#818686" opacity="1.00" d=" M 890.23 151.11 C 893.94 149.31 899.74 151.84 897.00 156.99 C 897.01 215.67 896.99 274.34 897.01 333.01 C 897.65 339.09 884.56 336.53 889.00 330.01 C 889.10 270.74 888.78 211.46 889.16 152.21 C 889.42 151.93 889.96 151.38 890.23 151.11 Z" />
<path fill="#818686" opacity="1.00" d=" M 1588.33 166.37 C 1595.01 164.22 1601.22 169.27 1604.17 174.85 C 1611.87 170.79 1620.07 167.08 1628.99 167.01 C 1643.15 165.91 1657.00 172.31 1667.22 181.77 C 1671.53 185.54 1671.19 191.75 1671.00 196.96 C 1668.61 202.26 1663.44 207.54 1656.99 206.04 C 1649.44 205.58 1645.36 197.26 1638.01 195.99 C 1626.09 191.97 1613.61 199.66 1608.03 210.05 C 1601.24 222.00 1608.32 236.44 1602.85 248.83 C 1598.27 255.28 1588.35 256.67 1582.35 251.63 C 1579.26 248.68 1577.63 244.29 1578.04 240.01 C 1577.90 220.00 1578.06 200.00 1577.96 179.99 C 1577.66 173.75 1582.12 167.62 1588.33 166.37 Z" />
<path fill="#818686" opacity="1.00" d=" M 1028.33 171.36 C 1037.56 168.21 1047.19 176.48 1045.96 185.99 C 1046.02 223.00 1046.04 260.00 1045.95 297.01 C 1042.95 315.23 1032.85 333.21 1016.25 342.26 C 994.10 355.24 963.68 349.25 947.74 329.26 C 942.41 323.42 942.42 312.92 948.67 307.67 C 953.70 302.11 963.59 302.96 967.76 309.23 C 977.74 321.86 999.05 322.89 1009.80 310.80 C 1018.10 303.45 1019.57 291.36 1018.96 280.91 C 1006.88 285.88 993.40 290.59 980.34 286.56 C 964.22 283.27 950.02 271.82 942.96 257.02 C 930.33 232.62 936.76 199.67 958.98 182.98 C 968.67 175.71 980.76 171.23 993.00 171.95 C 1002.57 171.36 1011.45 175.65 1019.77 179.81 C 1021.67 176.09 1024.09 172.47 1028.33 171.36 M 988.34 201.51 C 970.27 203.03 958.23 225.26 966.64 241.32 C 971.66 253.98 986.75 261.96 999.93 256.89 C 1014.05 252.27 1022.10 235.33 1017.58 221.33 C 1014.50 208.86 1001.17 199.33 988.34 201.51 Z" />
<path fill="#818686" opacity="1.00" d=" M 1114.31 172.41 C 1140.80 171.11 1163.56 193.84 1167.97 219.04 C 1168.44 225.84 1166.16 234.34 1159.65 237.67 C 1136.10 238.49 1112.52 237.70 1088.96 238.04 C 1090.77 247.65 1098.53 256.11 1107.91 259.14 C 1117.47 262.04 1127.73 259.22 1135.74 253.71 C 1139.42 251.12 1142.80 246.69 1148.01 247.98 C 1156.18 247.43 1162.81 256.18 1161.05 264.01 C 1159.99 272.87 1151.30 278.12 1144.22 282.20 C 1133.67 287.30 1121.74 289.61 1110.06 288.83 C 1089.78 286.77 1071.79 272.12 1064.95 253.02 C 1059.95 239.20 1059.46 223.54 1064.60 209.67 C 1071.87 188.93 1091.98 172.74 1114.31 172.41 M 1109.33 202.39 C 1102.65 204.14 1096.97 208.42 1092.86 213.90 C 1107.57 214.19 1122.29 213.93 1137.02 213.97 C 1131.96 204.31 1119.75 199.79 1109.33 202.39 Z" />
<path fill="#818686" opacity="1.00" d=" M 1190.33 172.40 C 1195.30 171.21 1199.52 174.18 1203.06 177.00 C 1218.99 169.57 1239.47 171.94 1252.23 184.63 C 1258.15 180.59 1264.45 175.35 1271.97 173.97 C 1286.52 170.35 1302.98 174.67 1313.27 185.74 C 1320.58 193.95 1326.18 204.65 1325.02 215.99 C 1324.88 236.98 1325.16 257.97 1324.92 278.95 C 1323.02 284.65 1317.39 289.50 1310.98 288.05 C 1303.67 287.81 1297.61 280.25 1298.98 273.02 C 1298.95 254.01 1299.08 235.00 1298.97 215.99 C 1297.81 205.50 1285.68 198.51 1275.91 202.88 C 1269.62 204.95 1265.38 211.41 1266.04 217.99 C 1265.87 237.00 1266.11 256.00 1265.97 275.01 C 1265.43 278.55 1263.55 281.79 1261.96 284.96 C 1256.39 289.23 1248.57 289.21 1243.04 284.96 C 1240.93 280.95 1238.55 276.73 1239.04 272.01 C 1238.80 252.69 1239.23 233.36 1238.90 214.05 C 1236.38 200.44 1216.79 197.85 1209.05 208.05 C 1207.54 211.19 1204.99 214.14 1206.04 217.99 C 1205.86 237.97 1206.14 257.96 1205.94 277.94 C 1203.91 286.01 1194.35 291.56 1186.69 287.32 C 1181.20 284.92 1178.71 278.69 1179.04 273.01 C 1178.91 244.67 1179.06 216.33 1178.97 187.99 C 1178.95 181.15 1183.00 173.40 1190.33 172.40 Z" />
<path fill="#818686" opacity="1.00" d=" M 1513.32 173.43 C 1535.43 172.50 1555.89 188.32 1563.31 208.70 C 1567.55 218.17 1568.17 231.21 1558.74 237.80 C 1534.80 238.33 1510.86 237.76 1486.93 238.06 C 1489.68 248.66 1498.07 258.81 1509.34 260.53 C 1517.81 262.09 1527.07 260.31 1533.94 254.95 C 1537.84 252.21 1541.60 247.88 1547.01 248.98 C 1555.51 248.32 1561.65 257.95 1559.68 265.71 C 1557.12 275.27 1546.96 279.64 1539.00 284.00 C 1525.54 289.54 1509.94 290.80 1496.13 285.84 C 1465.56 274.88 1451.23 235.77 1464.99 206.99 C 1472.89 187.87 1492.41 173.67 1513.32 173.43 M 1508.33 202.39 C 1501.27 204.42 1494.87 208.75 1490.88 214.95 C 1505.95 215.03 1521.03 215.06 1536.11 214.94 C 1532.00 204.56 1518.86 199.71 1508.33 202.39 Z" />
<path fill="#818686" opacity="1.00" d=" M 628.04 181.04 C 633.66 180.99 639.32 180.83 644.97 181.05 C 644.99 215.69 645.08 250.34 644.93 284.97 C 639.71 285.19 634.52 285.10 629.36 284.72 C 628.61 283.45 627.81 282.19 626.81 281.11 C 623.90 280.60 621.60 283.17 618.98 283.94 C 608.68 288.96 595.69 286.36 587.73 278.27 C 575.61 268.11 573.76 250.17 577.59 235.69 C 580.26 224.38 589.19 214.06 600.97 211.97 C 609.86 209.08 619.40 212.11 626.92 217.07 C 627.32 205.05 628.45 193.09 628.04 181.04 M 609.35 226.47 C 597.26 228.06 592.63 242.69 594.53 253.34 C 595.48 262.04 602.45 271.69 612.00 271.00 C 617.54 271.45 622.29 268.35 626.96 265.93 C 627.02 254.34 627.11 242.75 626.90 231.18 C 621.76 227.91 615.53 225.00 609.35 226.47 Z" />
<path fill="#818686" opacity="1.00" d=" M 704.06 181.03 C 710.01 181.01 716.00 180.80 721.97 181.06 C 722.13 193.07 721.84 205.08 722.05 217.09 C 725.15 216.06 727.67 213.66 731.01 213.08 C 744.15 207.42 760.48 213.17 767.82 225.19 C 775.34 237.21 776.25 252.82 770.82 265.86 C 767.34 277.39 755.92 285.67 744.01 285.99 C 736.89 287.04 730.12 284.31 724.00 281.01 C 718.93 286.49 710.69 284.82 704.06 283.85 C 703.97 249.58 703.94 215.30 704.06 181.03 M 734.35 226.45 C 729.77 227.57 723.71 229.15 722.05 234.04 C 721.94 244.27 721.83 254.51 722.18 264.75 C 727.08 270.53 735.62 271.53 742.69 270.70 C 753.58 266.38 758.24 252.71 755.05 241.97 C 753.35 232.56 744.67 223.52 734.35 226.45 Z" />
<path fill="#818686" opacity="1.00" d=" M 83.23 185.14 C 97.14 185.27 111.19 184.04 125.03 185.92 C 138.47 187.71 150.53 199.04 151.26 212.93 C 153.11 223.93 148.42 235.84 138.98 241.96 C 127.70 250.81 112.22 247.21 99.03 248.04 C 98.86 259.99 99.15 271.95 98.95 283.91 C 93.69 283.97 88.45 284.73 83.20 284.89 C 82.94 284.61 82.41 284.05 82.15 283.77 C 81.78 252.18 82.14 220.58 81.97 188.98 C 82.00 187.58 81.77 185.93 83.23 185.14 M 99.04 199.03 C 98.95 211.00 98.97 222.98 99.03 234.95 C 107.70 235.09 116.91 235.67 125.02 232.04 C 135.33 226.33 136.02 209.27 126.01 202.99 C 118.22 197.31 108.01 199.25 99.04 199.03 Z" />
<path fill="#818686" opacity="1.00" d=" M 192.34 211.47 C 205.04 209.42 219.48 212.88 227.99 223.02 C 241.33 237.79 239.84 263.00 225.84 276.85 C 217.68 283.93 206.71 287.22 195.99 285.98 C 181.10 285.69 167.90 274.30 163.63 260.32 C 161.75 251.89 161.35 242.81 164.60 234.67 C 168.56 222.54 179.91 213.63 192.34 211.47 M 195.33 226.37 C 175.94 230.88 174.93 262.87 192.68 270.34 C 201.61 274.56 212.45 269.08 216.65 260.70 C 219.35 253.68 218.70 245.88 217.31 238.68 C 214.57 229.47 204.77 223.71 195.33 226.37 Z" />
<path fill="#818686" opacity="1.00" d=" M 392.34 211.47 C 403.28 209.26 415.29 212.89 422.74 221.25 C 429.70 230.59 431.27 242.66 430.97 253.97 C 413.96 254.12 396.94 253.86 379.93 254.05 C 381.76 262.59 387.85 270.82 396.97 272.05 C 406.59 275.15 415.76 269.65 424.98 267.94 C 424.89 272.62 424.30 277.26 423.85 281.92 C 409.74 286.00 393.17 289.57 380.05 280.92 C 364.02 272.03 359.79 250.53 365.23 234.14 C 368.98 222.15 380.16 213.54 392.34 211.47 M 392.32 225.33 C 385.47 227.81 380.71 234.84 379.95 241.94 C 391.52 241.53 403.50 243.31 414.85 240.88 C 412.65 235.33 410.35 229.25 404.97 226.01 C 401.31 223.50 396.37 225.54 392.32 225.33 Z" />
<path fill="#818686" opacity="1.00" d=" M 479.33 211.39 C 481.74 211.29 486.56 211.08 488.96 210.98 C 488.96 214.70 488.96 222.14 488.96 225.86 C 479.53 225.19 470.18 228.92 464.21 236.28 C 463.61 252.50 464.29 268.74 463.93 284.97 C 458.29 285.00 452.65 285.16 447.03 284.95 C 446.99 260.98 446.94 237.00 447.05 213.03 C 452.63 213.00 458.24 212.80 463.83 213.07 C 464.16 214.70 463.72 216.67 465.12 217.89 C 469.91 215.87 474.28 212.80 479.33 211.39 Z" />
<path fill="#818686" opacity="1.00" d=" M 526.34 211.47 C 536.25 209.63 547.44 211.82 554.32 219.68 C 564.10 228.07 564.81 242.03 563.97 253.96 C 547.64 254.16 531.31 253.81 514.99 254.06 C 514.69 259.29 518.64 263.68 521.02 267.98 C 532.32 275.64 546.13 272.32 557.94 267.92 C 557.95 272.58 558.20 277.27 557.93 281.94 C 545.49 285.30 531.70 288.85 519.28 283.66 C 507.93 278.75 498.39 268.03 497.62 255.29 C 494.69 240.61 500.10 223.21 514.00 216.01 C 517.84 213.85 521.96 212.14 526.34 211.47 M 525.29 225.28 C 518.98 228.40 515.50 235.30 513.95 241.93 C 525.31 242.16 536.69 241.97 548.07 241.95 C 547.23 236.54 544.95 230.91 540.81 227.21 C 536.59 223.26 530.39 225.38 525.29 225.28 Z" />
<path fill="#818686" opacity="1.00" d=" M 244.09 212.98 C 249.66 213.04 255.27 212.74 260.85 213.11 C 267.21 228.24 269.47 244.87 276.19 259.88 C 276.60 259.89 277.43 259.93 277.84 259.95 C 281.66 244.15 287.55 228.88 291.24 213.07 C 296.76 213.02 302.32 212.73 307.84 213.10 C 308.90 214.27 309.13 215.85 309.66 217.29 C 313.42 230.47 317.58 243.53 321.32 256.72 C 321.71 258.23 323.95 261.74 324.38 258.33 C 330.84 243.74 332.98 227.74 339.16 213.11 C 344.79 212.96 350.43 212.84 356.07 213.06 C 352.80 223.63 349.01 234.11 345.59 244.68 C 340.39 257.15 337.62 270.54 331.76 282.75 C 327.45 285.94 320.38 285.88 315.79 283.22 C 309.29 268.76 306.36 252.82 300.94 237.93 C 301.13 235.59 299.13 238.34 299.09 239.05 C 293.60 252.94 289.73 267.38 285.68 281.72 C 283.72 288.63 274.15 283.46 269.17 284.92 C 260.11 261.29 251.76 237.17 244.09 212.98 Z" />
<path fill="#818686" opacity="1.00" d=" M 780.04 212.99 C 785.98 213.04 791.97 212.78 797.93 213.06 C 804.01 227.86 809.36 243.19 814.72 258.31 C 815.20 259.79 816.74 257.83 817.65 257.71 C 822.90 242.74 828.77 227.99 834.32 213.13 C 840.20 212.96 846.14 212.82 852.05 213.07 C 847.50 227.31 841.13 240.92 835.85 254.91 C 828.97 272.03 822.14 289.16 815.28 306.29 C 813.55 309.72 813.23 313.82 810.82 316.90 C 805.53 317.07 800.25 317.09 794.98 316.97 C 794.63 313.36 796.61 310.16 797.89 306.93 C 801.21 298.62 804.87 290.43 807.86 282.00 C 798.08 259.20 789.55 235.89 780.04 212.99 Z" />
<path fill="#818686" opacity="1.00" d=" M 1586.32 258.33 C 1593.89 256.19 1603.09 259.28 1605.98 267.00 C 1610.63 275.02 1605.91 286.45 1597.09 289.11 C 1585.51 294.15 1571.87 281.75 1575.84 269.91 C 1577.27 264.60 1581.10 260.13 1586.32 258.33 M 1588.30 264.28 C 1582.08 266.50 1579.58 275.03 1583.76 280.25 C 1586.60 284.36 1592.42 284.37 1596.73 282.70 C 1600.55 279.87 1602.79 274.61 1600.90 270.04 C 1598.75 265.70 1593.34 262.32 1588.30 264.28 Z" />
</g>
</svg>
