<?xml version="1.0" encoding="UTF-8" ?>
<!DOCTYPE svg PUBLIC "-//W3C//DTD SVG 1.1//EN" "http://www.w3.org/Graphics/SVG/1.1/DTD/svg11.dtd">
<svg width="512pt" height="512pt" viewBox="0 0 512 512" version="1.1" xmlns="http://www.w3.org/2000/svg">
<g id="#1cb7ebff">
<path fill="#1cb7eb" opacity="1.00" d=" M 251.47 0.00 L 262.78 0.00 C 301.92 1.17 340.81 11.11 375.41 29.51 C 425.82 56.01 466.86 99.83 489.93 151.90 C 503.71 182.63 511.01 216.11 512.00 249.74 L 512.00 259.58 C 511.40 301.03 500.70 342.31 480.73 378.66 C 452.04 431.40 404.21 473.41 348.13 494.89 C 320.78 505.53 291.57 511.10 262.26 512.00 L 251.50 512.00 C 207.16 511.20 163.05 498.80 125.00 475.97 C 73.14 445.20 32.80 395.54 13.54 338.37 C 5.17 313.89 0.80 288.14 0.00 262.30 L 0.00 251.45 C 0.54 225.75 4.75 200.11 12.84 175.70 C 30.26 122.51 65.85 75.58 112.16 44.19 C 152.97 16.27 202.05 0.82 251.47 0.00 M 292.04 139.06 C 277.17 143.76 264.82 155.13 258.10 169.11 C 251.74 182.06 250.44 197.06 252.70 211.18 C 239.01 210.46 225.41 207.96 212.43 203.54 C 182.23 193.40 155.84 173.38 136.47 148.25 C 129.70 159.54 128.31 173.22 129.42 186.10 C 130.94 203.07 139.70 219.34 153.55 229.39 C 144.51 229.30 135.78 226.30 127.97 221.89 C 127.82 234.97 131.64 248.11 139.12 258.87 C 147.03 270.49 159.13 279.15 172.74 282.72 C 164.42 284.73 155.63 285.69 147.18 283.83 C 150.34 293.88 155.74 303.30 163.39 310.60 C 172.92 319.92 186.08 325.33 199.43 325.38 C 176.63 344.36 145.92 354.22 116.38 349.95 C 142.88 368.37 175.23 378.76 207.60 377.46 C 236.36 376.80 265.02 368.08 288.76 351.73 C 317.14 332.42 338.18 303.46 350.31 271.54 C 359.27 248.27 363.27 223.24 362.69 198.33 C 374.37 188.71 384.84 177.44 392.52 164.33 C 382.64 169.60 371.70 172.63 360.61 173.90 C 372.38 166.23 380.96 154.21 385.09 140.84 C 373.79 147.49 361.64 152.81 348.83 155.72 C 343.22 149.63 336.58 144.39 329.00 141.00 C 317.50 135.71 304.05 135.20 292.04 139.06 Z" />
</g>
<g id="#ffffffff">
<path fill="#ffffff" opacity="1.00" d=" M 292.04 139.06 C 304.05 135.20 317.50 135.71 329.00 141.00 C 336.58 144.39 343.22 149.63 348.83 155.72 C 361.64 152.81 373.79 147.49 385.09 140.84 C 380.96 154.21 372.38 166.23 360.61 173.90 C 371.70 172.63 382.64 169.60 392.52 164.33 C 384.84 177.44 374.37 188.71 362.69 198.33 C 363.27 223.24 359.27 248.27 350.31 271.54 C 338.18 303.46 317.14 332.42 288.76 351.73 C 265.02 368.08 236.36 376.80 207.60 377.46 C 175.23 378.76 142.88 368.37 116.38 349.95 C 145.92 354.22 176.63 344.36 199.43 325.38 C 186.08 325.33 172.92 319.92 163.39 310.60 C 155.74 303.30 150.34 293.88 147.18 283.83 C 155.63 285.69 164.42 284.73 172.74 282.72 C 159.13 279.15 147.03 270.49 139.12 258.87 C 131.64 248.11 127.82 234.97 127.97 221.89 C 135.78 226.30 144.51 229.30 153.55 229.39 C 139.70 219.34 130.94 203.07 129.42 186.10 C 128.31 173.22 129.70 159.54 136.47 148.25 C 155.84 173.38 182.23 193.40 212.43 203.54 C 225.41 207.96 239.01 210.46 252.70 211.18 C 250.44 197.06 251.74 182.06 258.10 169.11 C 264.82 155.13 277.17 143.76 292.04 139.06 Z" />
</g>
</svg>
