<?xml version="1.0" encoding="UTF-8" ?>
<!DOCTYPE svg PUBLIC "-//W3C//DTD SVG 1.1//EN" "http://www.w3.org/Graphics/SVG/1.1/DTD/svg11.dtd">
<svg width="512pt" height="512pt" viewBox="0 0 512 512" version="1.1" xmlns="http://www.w3.org/2000/svg">
<g id="#ff0000ff">
<path fill="#ff0000" opacity="1.00" d=" M 253.80 0.00 L 258.04 0.00 C 293.75 0.39 329.43 8.03 361.91 22.94 C 421.44 49.79 469.76 100.39 493.77 161.13 C 505.61 190.52 511.60 222.16 512.00 253.82 L 512.00 258.03 C 511.59 301.25 500.28 344.37 478.85 381.94 C 460.26 414.87 434.22 443.57 403.29 465.33 C 361.18 495.24 309.78 511.58 258.16 512.00 L 254.01 512.00 C 206.63 511.61 159.40 497.94 119.41 472.48 C 90.93 454.51 66.06 430.84 46.67 403.30 C 16.76 361.19 0.42 309.80 0.00 258.18 L 0.00 253.91 C 0.41 214.20 9.92 174.54 28.19 139.24 C 54.32 88.06 98.25 46.21 150.69 22.67 C 182.96 7.95 218.36 0.42 253.80 0.00 M 224.42 136.59 C 207.58 136.88 190.75 137.27 173.93 138.11 C 158.20 139.08 142.37 139.65 126.84 142.56 C 115.56 144.64 105.20 151.35 98.93 160.99 C 93.48 168.96 91.74 178.70 90.36 188.08 C 87.77 205.58 86.84 223.27 86.33 240.93 C 85.61 256.61 86.34 272.29 86.96 287.96 C 87.91 303.96 89.06 320.05 92.49 335.75 C 94.82 346.80 101.45 356.93 110.97 363.08 C 117.23 367.32 124.67 369.36 132.08 370.36 C 147.63 372.66 163.36 373.27 179.03 374.14 C 215.93 375.49 252.87 376.32 289.79 375.36 C 315.79 374.92 341.81 374.16 367.72 371.85 C 377.72 370.67 388.18 370.05 397.27 365.29 C 407.94 359.82 415.97 349.61 418.94 338.00 C 421.96 326.04 423.05 313.70 424.16 301.44 C 426.74 267.00 426.50 232.33 423.00 197.96 C 421.83 189.11 420.93 180.15 418.26 171.60 C 414.86 160.72 406.85 151.39 396.63 146.36 C 387.43 141.81 376.98 141.24 366.96 140.07 C 343.02 137.99 318.98 137.15 294.96 136.74 C 271.45 136.14 247.93 135.98 224.42 136.59 Z" />
<path fill="#ff0000" opacity="1.00" d=" M 221.24 205.47 C 250.85 222.31 280.45 239.15 310.05 256.00 C 280.45 272.85 250.84 289.68 221.24 306.53 C 221.23 272.84 221.23 239.16 221.24 205.47 Z" />
</g>
<g id="#ffffffff">
<path fill="#ffffff" opacity="1.00" d=" M 224.42 136.59 C 247.93 135.98 271.45 136.14 294.96 136.74 C 318.98 137.15 343.02 137.99 366.96 140.07 C 376.98 141.24 387.43 141.81 396.63 146.36 C 406.85 151.39 414.86 160.72 418.26 171.60 C 420.93 180.15 421.83 189.11 423.00 197.96 C 426.50 232.33 426.74 267.00 424.16 301.44 C 423.05 313.70 421.96 326.04 418.94 338.00 C 415.97 349.61 407.94 359.82 397.27 365.29 C 388.18 370.05 377.72 370.67 367.72 371.85 C 341.81 374.16 315.79 374.92 289.79 375.36 C 252.87 376.32 215.93 375.49 179.03 374.14 C 163.36 373.27 147.63 372.66 132.08 370.36 C 124.67 369.36 117.23 367.32 110.97 363.08 C 101.45 356.93 94.82 346.80 92.49 335.75 C 89.06 320.05 87.91 303.96 86.96 287.96 C 86.34 272.29 85.61 256.61 86.33 240.93 C 86.84 223.27 87.77 205.58 90.36 188.08 C 91.74 178.70 93.48 168.96 98.93 160.99 C 105.20 151.35 115.56 144.64 126.84 142.56 C 142.37 139.65 158.20 139.08 173.93 138.11 C 190.75 137.27 207.58 136.88 224.42 136.59 M 221.24 205.47 C 221.23 239.16 221.23 272.84 221.24 306.53 C 250.84 289.68 280.45 272.85 310.05 256.00 C 280.45 239.15 250.85 222.31 221.24 205.47 Z" />
</g>
</svg>
